HIERARCHY
ROOT Hips
{
  OFFSET -69.4423 88.0299 51.6846
  CHANNELS 6 Xposition Yposition Zposition Zrotation Xrotation Yrotation
  JOINT Spine
  {
    OFFSET 12.0259 -0.162853 1.93176e-005
    CHANNELS 3 Zrotation Xrotation Yrotation
    JOINT Spine1
    {
      OFFSET 15.3169 -0.0121909 0
      CHANNELS 3 Zrotation Xrotation Yrotation
      JOINT Spine2
      {
        OFFSET 15.3176 -0.0121922 0
        CHANNELS 3 Zrotation Xrotation Yrotation
        JOINT Neck
        {
          OFFSET 19.9142 1.56236 0
          CHANNELS 3 Zrotation Xrotation Yrotation
          JOINT Head
          {
            OFFSET 6.92646 0 0
            CHANNELS 3 Zrotation Xrotation Yrotation
            End Site
            {
              OFFSET 20.7666 0 0
            }
          }
          JOINT LeftShoulder
          {
            OFFSET -4.94072 -1.14703 8.14416
            CHANNELS 3 Zrotation Xrotation Yrotation
            JOINT LeftArm
            {
              OFFSET 14.108 0 -2.74767e-005
              CHANNELS 3 Zrotation Xrotation Yrotation
              JOINT LeftForeArm
              {
                OFFSET 28.5802 -0.0783412 -0.0284884
                CHANNELS 3 Zrotation Xrotation Yrotation
                JOINT LeftHand
                {
                  OFFSET 27.092 0 0
                  CHANNELS 3 Zrotation Xrotation Yrotation
                  End Site
                  {
                    OFFSET 9.55928 -0.186424 0.145352
                  }
                }
              }
            }
          }
          JOINT RightShoulder
          {
            OFFSET -7.15748 -1.33027 -6.24935
            CHANNELS 3 Zrotation Xrotation Yrotation
            JOINT RightArm
            {
              OFFSET 14.108 0 1.82997e-005
              CHANNELS 3 Zrotation Xrotation Yrotation
              JOINT RightForeArm
              {
                OFFSET 28.5802 -0.0707221 2.30684e-005
                CHANNELS 3 Zrotation Xrotation Yrotation
                JOINT RightHand
                {
                  OFFSET 27.092 0 -1.30073e-005
                  CHANNELS 3 Zrotation Xrotation Yrotation
                  End Site
                  {
                    OFFSET 9.55929 -0.186417 -0.145354
                  }
                }
              }
            }
          }
        }
      }
    }
  }
  JOINT LeftUpLeg
  {
    OFFSET 0.00499725 -0.534999 8.837
    CHANNELS 3 Zrotation Xrotation Yrotation
    JOINT LeftLeg
    {
      OFFSET 39.9035 -0.00124594 0.000252775
      CHANNELS 3 Zrotation Xrotation Yrotation
      JOINT LeftFoot
      {
        OFFSET 39.6689 0 0
        CHANNELS 3 Zrotation Xrotation Yrotation
        JOINT LeftToe
        {
          OFFSET 10.1624 13.6296 0
          CHANNELS 3 Zrotation Xrotation Yrotation
          End Site
          {
            OFFSET 8.38147 0 0
          }
        }
      }
    }
  }
  JOINT RightUpLeg
  {
    OFFSET 0.00499725 -0.535 -8.837
    CHANNELS 3 Zrotation Xrotation Yrotation
    JOINT RightLeg
    {
      OFFSET 39.9036 -0.000268477 0.000106433
      CHANNELS 3 Zrotation Xrotation Yrotation
      JOINT RightFoot
      {
        OFFSET 39.6689 1.17892e-005 0
        CHANNELS 3 Zrotation Xrotation Yrotation
        JOINT RightToe
        {
          OFFSET 10.1624 13.6296 0
          CHANNELS 3 Zrotation Xrotation Yrotation
          End Site
          {
            OFFSET 8.38147 0 0
          }
        }
      }
    }
  }
}
MOTION
Frames:	19
Frame Time:	0.0333333
-0.569053 89.015 13.0449 156.849 85.2285 -66.4916 -0.158964 -0.696026 0.374198 -0.313419 -1.39258 0.746727 -0.31343 -1.39259 0.746719 -17.7346 -7.32537 -18.7681 39.1006 -7.81038 25.6042 -166.923 -12.0771 -100.218 -16.7551 7.2435 87.8674 -26.1205 3.32258 -16.6271 7.16388 -84.8488 9.06554 -166.559 -13.4943 68.7029 -13.3896 -3.44923 -86.2416 -24.6322 -3.41273 15.3997 2.19759 83.0428 -2.05863 -0.212072 1.3572 178.959 -7.93831 0.93669 -1.09202 1.92419 -0.241375 -0.120017 90 -6.11263e-015 4.96962e-015 -9.04818 1.59452 -176.863 -24.9789 -0.512643 -0.253004 7.12823 1.25311 -0.358062 90 -8.32411e-015 2.48481e-015 
-0.598431 89.0184 12.9893 156.781 85.1726 -66.3333 -0.14838 -0.734676 0.363157 -0.29212 -1.46978 0.724667 -0.292127 -1.46979 0.724657 -18.0259 -7.25083 -18.62 39.2329 -7.81606 25.3746 -166.588 -12.0447 -100.038 -16.9854 7.21822 87.873 -26.3428 3.37037 -16.7413 7.52267 -85.2347 9.46366 -166.22 -13.4609 68.8983 -13.7072 -3.45652 -86.2712 -24.7933 -3.45911 15.4835 2.24734 83.0952 -2.11092 -0.177194 1.38485 178.886 -7.71483 0.929924 -1.11013 1.80884 -0.218438 -0.114765 90 4.14963e-015 -7.55382e-015 -9.15058 1.61162 -176.931 -25.0284 -0.52344 -0.242927 7.14301 1.2664 -0.359095 90 9.16894e-015 9.93923e-017 
-0.698608 89.0183 12.9253 157.593 85.1824 -67.326 -0.144156 -0.774881 0.425451 -0.28255 -1.55033 0.849262 -0.282562 -1.55034 0.849245 -18.0724 -7.23036 -18.7341 39.299 -7.72162 25.5071 -166.562 -12.0715 -100.153 -16.8194 7.17406 87.9035 -26.4186 3.37569 -16.7799 7.07956 -84.4429 8.86532 -166.195 -13.4905 68.7873 -13.6069 -3.47724 -86.2162 -24.7718 -3.44858 15.479 2.14139 82.6624 -2.00751 -0.394233 1.3149 179.139 -7.98769 0.933169 -1.10458 1.94266 -0.154474 -0.118379 90 -3.15571e-015 -3.97569e-015 -9.16078 1.58097 -176.665 -24.8999 -0.529372 -0.235629 7.02758 1.36881 -0.35675 90 8.67198e-015 3.77691e-015 
-0.708861 89.0265 12.8971 159.135 85.1559 -68.7691 -0.121386 -0.778561 0.429855 -0.237155 -1.55909 0.848012 -0.237164 -1.55908 0.848005 -18.0737 -7.27093 -18.8154 39.0506 -7.72106 25.7337 -166.591 -12.1339 -100.227 -17.2337 7.09626 87.9009 -26.5294 3.39839 -16.8391 7.37498 -84.5857 9.18008 -166.219 -13.563 68.7187 -13.4617 -3.30713 -86.1461 -24.6327 -3.41488 15.4035 2.144 82.6651 -2.01341 -0.261221 1.20092 179.028 -7.5603 0.931122 -1.10177 1.75197 -0.106381 -0.12368 90 -6.03808e-015 -1.59028e-014 -9.27118 1.45967 -176.781 -24.9658 -0.531366 -0.230801 7.11725 1.32898 -0.357704 90 -1.20265e-014 1.39149e-015 
-0.785094 89.0209 12.9046 159.85 85.1618 -69.5821 -0.0815656 -0.760753 0.441666 -0.157254 -1.52163 0.882542 -0.157273 -1.52164 0.882528 -18.326 -7.32832 -18.6365 39.0634 -7.98284 25.5726 -166.32 -12.2016 -99.9892 -17.4436 7.03102 87.743 -26.6289 3.41934 -16.8862 7.44401 -84.6603 9.25632 -165.936 -13.6331 68.9671 -13.3529 -3.37408 -86.2144 -24.8711 -3.47266 15.5279 2.02144 82.3534 -1.91543 -0.217196 1.13932 179.141 -7.42456 0.929401 -1.10531 1.66434 -0.0682774 -0.125903 90 -1.06847e-015 9.93923e-016 -9.27699 1.64545 -176.591 -24.9223 -0.53035 -0.228132 7.19752 1.50097 -0.359305 90 8.72168e-015 -5.96354e-016 
-0.83837 89.0096 12.9097 159.813 85.1859 -69.6111 -0.0972228 -0.746575 0.467271 -0.188396 -1.49344 0.933552 -0.188397 -1.49344 0.933534 -18.2502 -7.301 -18.9684 39.2886 -7.51676 26.2502 -166.465 -12.2736 -100.349 -17.4874 7.25114 87.8577 -26.6654 3.42644 -16.9036 7.68863 -84.872 9.5143 -166.092 -13.6966 68.6132 -13.2739 -3.61547 -86.1578 -24.725 -3.43444 15.4485 2.00792 82.4201 -1.88872 -0.328469 1.13366 179.238 -7.62434 0.928131 -1.10688 1.7068 -0.123786 -0.126122 90 -1.66731e-014 -7.35503e-015 -9.21662 1.65801 -176.488 -24.8895 -0.527252 -0.227312 7.18078 1.51229 -0.361933 90 3.85145e-015 3.37934e-015 
-0.861535 89.0005 12.9276 158.96 85.2551 -68.5985 -0.110071 -0.705414 0.431054 -0.214815 -1.41116 0.861031 -0.214818 -1.41117 0.861018 -18.1215 -7.3717 -18.7056 39.1923 -7.84342 25.8383 -166.553 -12.2265 -100.107 -17.1782 7.44475 87.8338 -26.7368 3.45018 -16.9342 6.81406 -84.6052 8.71369 -166.166 -13.6413 68.8693 -13.4345 -3.87316 -86.1773 -24.617 -3.40806 15.3957 2.13503 82.9598 -2.00975 -0.116772 1.1853 179.07 -7.44119 0.927253 -1.10484 1.62489 -0.204118 -0.125056 90 -1.635e-014 1.82882e-014 -9.21593 1.66822 -176.644 -25.0455 -0.522998 -0.228032 7.23136 1.42672 -0.365088 90 -2.31087e-014 -1.50082e-014 
-0.924258 88.9934 12.9633 157.656 85.3145 -67.3529 -0.0590694 -0.669491 0.440165 -0.112985 -1.33893 0.87989 -0.112996 -1.33893 0.879878 -18.1467 -7.38543 -18.7031 39.0664 -7.86206 25.8943 -166.532 -12.2462 -100.085 -17.1916 7.3714 87.6614 -26.5523 3.40085 -16.8369 7.35801 -84.8516 9.1789 -166.145 -13.6632 68.8733 -13.0844 -3.62548 -86.097 -24.2004 -3.30617 15.1665 2.06175 82.6286 -1.90479 -0.152473 1.26366 179.153 -7.72954 0.926704 -1.10157 1.79326 -0.267218 -0.123165 90 -2.03754e-015 -4.07509e-015 -9.06304 1.83741 -176.518 -24.9896 -0.518517 -0.229983 7.27769 1.53368 -0.368931 90 7.20594e-016 4.77083e-015 
-0.959468 88.9945 13.009 159.218 85.4241 -68.9223 -0.0377835 -0.664588 0.454041 -0.0702664 -1.32761 0.909304 -0.0702702 -1.32761 0.909304 -18.2642 -7.35331 -18.9392 39.4144 -7.66974 26.1737 -166.461 -12.318 -100.286 -17.1722 7.36018 87.6277 -26.2483 3.33827 -16.6803 7.1461 -84.5182 8.96465 -166.079 -13.7317 68.6484 -12.5178 -3.55145 -86.0317 -24.1238 -3.28656 15.1199 1.90625 82.0352 -1.74499 -0.14556 1.10391 179.199 -7.80836 0.926422 -1.09931 1.80584 -0.255641 -0.12091 90 -7.03201e-015 -4.96962e-016 -8.9258 1.69243 -176.501 -24.9541 -0.514736 -0.232853 7.34353 1.55907 -0.373217 90 1.14301e-014 -2.98177e-016 
-1.00466 88.9871 13.0093 160.389 85.4905 -69.9836 -0.00342443 -0.681784 0.44235 -0.00159775 -1.36309 0.884926 -0.00160283 -1.36309 0.884912 -18.554 -7.25216 -18.7383 39.5183 -7.715 25.7687 -166.105 -12.2482 -100.04 -16.8069 7.35478 87.6767 -26.1578 3.32675 -16.6317 7.0783 -84.3618 8.9193 -165.716 -13.644 68.8778 -12.3466 -3.37418 -85.9887 -23.9199 -3.23879 15.0107 1.85187 81.7425 -1.68763 0.0249949 0.99616 179.121 -7.54155 0.926346 -1.09857 1.66587 -0.216498 -0.118752 90 -2.55687e-014 -2.38542e-015 -8.94761 1.51433 -176.611 -25.1152 -0.512583 -0.236334 7.42866 1.45889 -0.381975 90 -4.96962e-015 -9.14409e-015 
-1.01177 88.98 13.0161 162.835 85.5173 -72.1748 -0.0205083 -0.712443 0.399693 -0.0359484 -1.43273 0.799397 -0.0359626 -1.43273 0.799388 -18.4812 -7.21924 -18.8057 39.5654 -7.56413 25.8658 -166.184 -12.2254 -100.12 -16.5931 7.47851 87.6565 -25.8732 3.26531 -16.4799 7.15147 -84.2423 8.96122 -165.798 -13.607 68.7866 -12.4471 -3.70356 -86.0358 -24.1552 -3.29733 15.1471 1.83766 81.7081 -1.70856 0.215804 0.805076 178.91 -7.07634 0.926416 -1.09671 1.51398 -0.12602 -0.117152 90 4.82053e-015 1.19271e-015 -9.05546 1.35396 -176.904 -25.361 -0.51212 -0.240115 7.60165 1.38033 -0.389695 90 -8.19987e-016 5.2181e-015 
-1.12105 88.9803 13.0129 162.07 85.454 -71.5697 -0.0720814 -0.703966 0.426816 -0.139022 -1.39917 0.853001 -0.13903 -1.39918 0.852987 -18.0356 -7.17922 -18.7817 39.2942 -7.33097 25.8991 -166.609 -12.0747 -100.204 -16.5627 7.88183 87.6665 -25.707 3.233 -16.3847 7.14071 -84.4308 9.01326 -166.227 -13.437 68.7083 -12.8145 -4.03512 -86.1526 -24.2649 -3.32507 15.2089 1.98815 82.2004 -1.84216 0.0455297 0.884938 179.129 -7.33384 0.926571 -1.09481 1.59382 -0.167761 -0.116573 90 -3.08116e-015 4.17448e-015 -9.08718 1.46851 -176.638 -25.2707 -0.511689 -0.243887 7.51321 1.50833 -0.394044 90 3.57812e-015 2.28602e-015 
-1.18907 88.9908 13.0319 163.312 85.5857 -72.8178 -0.0333406 -0.697185 0.449435 -0.0611791 -1.39412 0.898738 -0.0611894 -1.39413 0.898724 -18.4827 -6.90324 -18.5557 39.5906 -7.0933 25.3252 -166.047 -11.8818 -99.9436 -16.5187 7.93072 87.8598 -25.582 3.21408 -16.3208 7.51952 -84.7906 9.47129 -165.658 -13.2174 68.9509 -12.9122 -3.95029 -85.9638 -24.1404 -3.29478 15.1507 1.99611 82.2798 -1.88277 0.111836 0.754536 179.207 -7.40244 0.926748 -1.09392 1.61518 -0.192849 -0.117474 90 5.49143e-015 -2.98177e-015 -8.9301 1.57988 -176.538 -25.1651 -0.5112 -0.247339 7.46124 1.75234 -0.397165 90 3.32964e-015 -5.96354e-015 
-1.24302 88.9885 13.0288 162.544 85.5056 -71.9783 -0.0319783 -0.610848 0.41324 -0.0597683 -1.22139 0.826415 -0.0597783 -1.22139 0.826398 -18.8141 -6.50705 -18.1423 39.9114 -6.45362 24.7793 -165.53 -11.4919 -99.5566 -16.5202 7.92237 87.7638 -25.3627 3.16378 -16.2032 7.5969 -84.6505 9.49369 -165.14 -12.81 69.3261 -12.9752 -3.91023 -86.0535 -24.2191 -3.31326 15.179 2.16273 82.7156 -2.01153 0.203535 0.836139 179.167 -7.12304 0.926887 -1.09511 1.47942 -0.202717 -0.120316 90 1.13059e-014 -3.97569e-016 -9.01011 1.32813 -176.65 -25.2177 -0.510651 -0.250162 7.50773 1.34464 -0.398774 90 -1.82261e-014 -1.94809e-014 
-1.31745 88.9986 12.9862 162.573 85.4965 -72.0973 -0.0286254 -0.548099 0.417746 -0.0532674 -1.0959 0.835436 -0.0532754 -1.09591 0.835425 -19.4439 -5.83769 -17.5065 40.7028 -5.37808 23.8549 -164.617 -10.85 -98.9806 -16.4328 7.87907 87.696 -25.1279 3.11866 -16.0801 7.31913 -84.4845 9.23881 -164.227 -12.1493 69.89 -12.5612 -3.90465 -86.1506 -24.3435 -3.34232 15.2373 2.08536 82.3335 -1.92477 0.16113 0.844821 179.293 -7.14511 0.926926 -1.09944 1.44516 -0.20753 -0.125561 90 3.23025e-016 8.74653e-015 -9.07532 1.21157 -176.532 -25.2109 -0.510039 -0.252046 7.4287 1.21749 -0.398918 90 6.7711e-015 6.90777e-015 
-1.41767 88.9961 12.9701 162.764 85.5325 -72.414 0.0386399 -0.492058 0.456754 0.0812003 -0.983298 0.91406 0.081196 -0.983309 0.914057 -20.4352 -5.10394 -16.8386 41.4291 -4.52143 22.5331 -163.34 -10.1987 -98.3509 -16.5014 7.72363 87.766 -25.2357 3.13393 -16.1368 6.925 -84.459 8.81649 -162.942 -11.4703 70.5113 -12.5069 -3.69948 -86.1125 -24.5369 -3.39134 15.3314 2.12174 82.4262 -1.95887 -0.0211906 0.820615 179.482 -7.49601 0.926803 -1.10797 1.56647 -0.236198 -0.13367 90 -3.32964e-015 9.93923e-016 -8.98703 1.25005 -176.315 -25.1133 -0.509361 -0.252681 7.4431 1.32896 -0.397444 90 -1.89591e-014 -1.91827e-014 
-1.42122 88.9933 12.9485 165.017 85.5214 -74.3143 -0.00585837 -0.445783 0.384177 -0.00872985 -0.891112 0.768519 -0.0087299 -0.891111 0.768506 -20.8494 -4.44617 -16.5738 42.2515 -3.25344 22.0075 -162.734 -9.614 -98.2133 -16.8268 7.89039 87.8106 -25.1688 3.11382 -16.0984 6.99834 -84.5127 8.87435 -162.341 -10.869 70.6398 -12.2531 -3.81832 -86.1966 -24.5585 -3.39535 15.3409 2.05585 82.1435 -1.89718 0.392251 0.649393 179.177 -6.50142 0.926457 -1.12114 1.11987 -0.132418 -0.150465 90 7.92654e-015 -3.77691e-015 -9.21552 1.18791 -176.663 -25.4657 -0.508614 -0.251934 7.55168 1.39674 -0.394176 90 -1.83876e-015 -3.97569e-015 
-1.50474 88.9851 12.9459 164.819 85.5511 -74.0757 0.0740854 -0.392295 0.378076 0.150675 -0.783609 0.747191 0.150666 -0.783617 0.747179 -21.4948 -3.96022 -16.087 42.5627 -2.75225 21.0349 -161.896 -9.13113 -97.7799 -17.0706 7.52497 87.6714 -25.2301 3.13187 -16.1335 7.64774 -84.8633 9.57432 -161.506 -10.3891 71.0646 -12.553 -3.51651 -86.0745 -24.5351 -3.38753 15.3192 2.14404 82.4886 -1.99116 0.494162 0.656674 179.198 -6.36818 0.925832 -1.12288 1.01284 -0.105317 -0.150261 90 -1.30204e-014 -1.80894e-014 -9.23843 1.14717 -176.644 -25.563 -0.507796 -0.251158 7.57271 1.42463 -0.388979 90 4.99446e-015 7.25564e-015 
-1.61717 89.0148 12.8751 165.706 85.6601 -75.0234 0.0550678 -0.374259 0.385859 0.112704 -0.747657 0.772266 0.112684 -0.74766 0.772255 -21.5522 -3.5699 -16.2138 42.7974 -1.77723 21.1445 -161.784 -8.84781 -98.0268 -16.8363 7.62738 87.8747 -25.4116 3.17249 -16.2319 7.22904 -84.6016 9.14998 -161.396 -10.109 70.8378 -12.7702 -3.92998 -86.2298 -24.7876 -3.45122 15.4597 2.20679 82.7247 -2.06203 0.224896 0.567302 179.361 -6.95442 0.924865 -1.12073 1.24182 -0.103071 -0.147168 90 -1.26228e-014 1.19271e-014 -9.13621 1.34443 -176.447 -25.4427 -0.506904 -0.25048 7.43245 1.7118 -0.380326 90 1.3418e-015 -7.85199e-015 
